<?xml version="1.0" encoding="UTF-8"?>
<svg id="_图层_1" data-name="图层 1" xmlns="http://www.w3.org/2000/svg" viewBox="0 0 216 215.76">
  <defs>
    <style>
      .cls-1 {
        fill: #b14b79;
      }

      .cls-1, .cls-2, .cls-3, .cls-4, .cls-5, .cls-6, .cls-7 {
        stroke-width: 0px;
      }

      .cls-2 {
        fill: #fbfbfb;
      }

      .cls-3 {
        fill: #060405;
      }

      .cls-4 {
        fill: #e09c61;
      }

      .cls-5 {
        fill: #060505;
      }

      .cls-6 {
        fill: #4d8e96;
      }

      .cls-7 {
        fill: #d27c5e;
      }
    </style>
  </defs>
  <path class="cls-2" d="M107.98,215.73c-35.63,0-71.26,0-106.89.03-.95,0-1.08-.26-1.08-1.13C.03,143.45.03,72.27,0,1.08,0,.14.26,0,1.13,0,72.39.03,143.65.03,214.92,0c.95,0,1.08.26,1.08,1.13-.02,71.18-.02,142.37,0,213.55,0,.95-.26,1.08-1.13,1.08-35.63-.02-71.26-.02-106.89-.02Z"/>
  <path class="cls-3" d="M143.57,103.44c-.25-.54-.55-1.07-.76-1.62-.97-2.6-.26-4.59,2.12-6.03,1.21-.73,2.56-1.11,3.87-1.6,17.24-6.45,32.96-15.59,47.61-26.67.83-.63,1.63-1.29,2.56-1.76,2.12-1.07,3.7-.58,4.76,1.53,1.09,2.16,1.53,4.53,2.11,6.84,2.42,9.77,3.76,19.68,3.61,29.77-.25,16.62-4.47,32.17-12.74,46.58-9.52,16.6-22.37,29.95-39.05,39.48-11.07,6.32-22.93,10.39-35.56,12.12-20.86,2.87-40.82-.21-59.51-9.9-24.23-12.56-41.34-31.61-50.43-57.52-3.25-9.26-4.67-18.88-4.77-28.7-.05-4.76.1-9.5.71-14.22.33-2.57,1.33-3.63,3.35-3.84,1.91-.2,3.38.9,4.14,3.25,1.31,4.06,2.73,8.08,4.58,11.93,7.24,15.13,18.54,26.36,33.24,34.2,11.9,6.35,24.79,8.89,38.19,9.18,2.96.06,5.91.16,8.84-.39,5.34-1,9.58-3.88,13.07-7.91,7.52-8.7,13.92-18.11,18.03-28.94.48-1.27,1.02-2.52,1.81-3.64,1.04-1.48,2.17-1.92,3.94-1.51,1.25.29,2.42.81,3.58,1.36,1.2.2,1.88,1.18,2.7,1.9,4.44,3.87,8.47,8.14,12.11,12.77,7.97,10.16,13.44,21.52,16.28,34.13.9,3.98,1.57,8,1.88,12.07.03.35,0,.72.38,1.11,1.47-1.46,2.99-2.86,4.37-4.41,3.81-4.28,7.19-8.87,10.12-13.81,5.21-8.78,8.8-18.18,11.05-28.12,1.86-8.2,2.58-16.51,2.17-24.88-.32-6.48-1.38-12.87-3.51-19.04-.45-1.32-.52-1.34-1.73-.54-6.05,3.97-11.94,8.18-18.17,11.88-9.03,5.37-18.52,9.77-28.41,13.31-1.77.63-3.55,1.24-5.32,1.85-.42.14-.92.48-1.23-.19Z"/>
  <path class="cls-6" d="M143.57,103.44c.45.3.84,0,1.23-.13,17.15-5.52,32.89-13.8,47.56-24.2,1.63-1.15,3.34-2.2,4.97-3.35.66-.47.88-.34,1.13.38,1.66,4.8,2.73,9.74,3.33,14.78.79,6.69.77,13.4-.01,20.09-1.63,13.93-5.94,26.97-13.18,39.01-3.79,6.3-8.31,12.02-13.61,17.12-.34.32-.7.62-1.25,1.11-1.95-25.8-13.29-46.48-32.85-62.83,1.02-.49,2.1-.9,2.68-1.98Z"/>
  <path class="cls-5" d="M78.42,94.42c-.05-1.29.46-2.3.88-3.34,1.72-4.17,3.74-8.21,5.7-12.27.35-.73.28-.95-.51-1.2-5.5-1.78-10.99-3.61-16.48-5.43-1.1-.37-2.18-.77-3.15-1.43-2.82-1.92-2.58-5.75.53-7.14,2.88-1.29,6-1.92,8.99-2.9,3.26-1.07,6.53-2.11,9.81-3.1.76-.23.8-.48.48-1.15-1.99-4.18-3.93-8.39-5.89-12.58-.14-.29-.27-.58-.4-.87-.64-1.42-.97-2.84.18-4.15,1.2-1.37,2.75-1.68,4.48-1.25,2.22.55,4.22,1.67,6.3,2.57,2.49,1.07,4.96,2.19,7.4,3.36.75.36.91.17,1.08-.55,1.31-5.45,3.07-10.76,5.41-15.86.42-.91.86-1.81,1.48-2.6,1.6-2.04,4.02-2.13,5.76-.22.85.93,1.36,2.06,1.92,3.17,2.07,4.13,3.65,8.43,4.48,12.99.54,3.01,1.41,3.41,4.17,1.99,3.23-1.66,6.5-3.23,9.88-4.56.89-.35,1.8-.66,2.77-.69,2.51-.07,4.23,1.91,3.79,4.38-.1.55-.25,1.1-.46,1.61-1.61,3.92-3.15,7.86-5.27,11.54-.14.24-.28.49-.39.74-.62,1.36-.35,2.15,1.08,2.59,2.01.63,4.08,1.1,6.11,1.69,3.53,1.01,7.05,2.05,10.57,3.1.61.18,1.21.43,1.77.73,2.49,1.33,2.69,4.45.38,6.08-.55.39-1.17.7-1.79.95-5.09,2-10.05,4.33-15.33,5.81-.19.05-.38.12-.57.18-2.23.78-2.64,1.69-1.54,3.8,1.9,3.61,3.72,7.24,4.71,11.23.27,1.09.51,2.18.42,3.31-.15,2.09-1.26,3-3.34,2.77-1.74-.19-3.3-.92-4.89-1.57-2.74-1.13-5.34-2.53-7.93-3.96-.42-.23-.85-.45-1.29-.64-1.03-.44-1.84-.16-2.24.88-.39,1-.69,2.04-.98,3.08-1.34,4.77-2.95,9.46-4.7,14.1-.96,2.55-3.26,3.43-5.51,2.27-1.12-.58-1.85-1.54-2.32-2.66-1.79-4.23-3.55-8.48-4.66-12.96-.25-1.01-.45-2.03-.91-2.97-.75-1.52-1.65-1.86-3.22-1.18-.36.16-.73.33-1.05.56-3.12,2.24-6.79,3.37-10.2,5.01-1.42.68-2.87.63-4.16-.46-.9-.77-1.47-1.68-1.33-2.79Z"/>
  <path class="cls-4" d="M53.03,177.39c2.44-.42,4.67-.78,6.9-1.19,16.5-3,31.25-9.9,44.55-20.03,14.22-10.83,24.86-24.48,32.07-40.83.03-.07.05-.15.08-.23,1.07-2.36,1.95-2.56,3.76-.74,9.62,9.64,17.47,20.45,21.95,33.47,2.87,8.33,4.03,16.9,3.76,25.69-.06,1.85-.85,3.25-2.37,4.33-11,7.84-23.08,13.23-36.3,16.05-7.61,1.63-15.31,2.38-23.09,2.06-18.06-.73-34.54-6.14-49.23-16.77-.7-.51-1.31-1.13-2.09-1.82Z"/>
  <path class="cls-1" d="M14.89,110.79c19.26,29.22,46.12,43.79,81.2,42.85,0,.56-.49.62-.78.82-12.58,8.35-26.37,13.54-41.31,15.63-2.69.38-5.38.71-8.1.82-1.3.05-2.33-.41-3.23-1.29-12.36-12.04-20.9-26.3-25.12-43.08-1.26-5-2.15-10.05-2.65-15.18-.02-.19,0-.38,0-.57Z"/>
  <path class="cls-7" d="M126.75,86.86c-3.33-1.73-6.61-3.2-9.71-5.03-2.92-1.73-4.17-1.17-4.83,2.16-.94,4.72-2.31,9.31-3.94,13.83-.12.32-.13.71-.55,1.02-.81-2.58-1.63-5.1-2.4-7.64-.75-2.49-1.44-4.99-2.16-7.49-.08-.27-.16-.54-.26-.8-.63-1.66-1.37-1.99-2.94-1.16-2.47,1.31-4.93,2.63-7.47,3.8-1.01.47-2.01.97-3.03,1.46-.28-.38.04-.63.15-.88,1.42-3.3,2.85-6.61,4.3-9.89.95-2.15.46-3.39-1.8-4.17-4.34-1.49-8.7-2.94-13.05-4.4-.26-.09-.52-.19-.85-.31.49-.5,1.11-.52,1.65-.71,4.04-1.38,8.09-2.74,12.13-4.1.3-.1.6-.22.89-.35,1.86-.82,2.25-1.82,1.33-3.61-1.61-3.13-3.24-6.24-4.86-9.36-.09-.16-.26-.31-.12-.62,3.02,1.32,6.06,2.59,9,4.07,3.43,1.72,4.1,1.41,5.03-2.3,1.14-4.6,2.7-9.08,4.33-13.64.2.58.39,1.17.59,1.75,1.47,4.31,3,8.61,4.22,13,.05.19.12.38.19.57.66,1.79,1.6,2.2,3.35,1.37,2.13-1.01,4.23-2.08,6.35-3.1,1.25-.6,2.53-1.17,4.06-1.87-.47,1.07-.84,1.92-1.21,2.78-1.05,2.42-2.07,4.85-3.31,7.19-1.28,2.42-.83,3.55,1.73,4.47,4.14,1.47,8.28,2.93,12.42,4.4.41.15.81.31,1.52.58-1.71.57-3.16,1.07-4.62,1.53-3.2,1-6.41,1.97-9.61,2.98-2.6.82-3.02,1.85-1.61,4.13,1.95,3.14,3.32,6.56,4.98,9.83.05.1.04.22.1.53Z"/>
</svg>